<svg xmlns="http://www.w3.org/2000/svg" viewBox="0 0 1600 1000" role="img" aria-label="Developer workbench with deployment notes">
  <rect width="1600" height="1000" fill="#eadfcd"/>
  <path d="M1010 0h590v1000h-500c70-170 82-335 33-495S1016 190 1010 0Z" fill="#2f514d"/>
  <path d="M0 760c235-88 474-96 716-24s536 67 884-14v278H0Z" fill="#d7b46a" opacity=".52"/>
  <g transform="translate(900 170) rotate(-7)">
    <rect width="410" height="292" rx="8" fill="#0f1f1e"/>
    <rect x="22" y="25" width="366" height="206" rx="4" fill="#fffaf0"/>
    <rect x="50" y="54" width="145" height="12" fill="#bd5539"/>
    <rect x="50" y="88" width="260" height="10" fill="#0f1f1e" opacity=".22"/>
    <rect x="50" y="118" width="302" height="10" fill="#0f1f1e" opacity=".22"/>
    <rect x="50" y="148" width="210" height="10" fill="#0f1f1e" opacity=".22"/>
    <rect x="50" y="188" width="92" height="28" fill="#2f514d"/>
    <rect x="165" y="188" width="132" height="28" fill="#d7b46a"/>
    <rect x="152" y="250" width="108" height="18" fill="#0f1f1e"/>
  </g>
  <g transform="translate(1080 520) rotate(8)">
    <rect width="250" height="160" rx="4" fill="#fffaf0"/>
    <path d="M0 44h250" stroke="#0f1f1e" stroke-opacity=".2" stroke-width="3"/>
    <path d="M34 82h180M34 112h118" stroke="#bd5539" stroke-width="12"/>
  </g>
  <g transform="translate(782 556) rotate(-12)">
    <rect width="210" height="126" rx="4" fill="#bd5539"/>
    <path d="M30 38h118M30 66h155M30 94h88" stroke="#fffaf0" stroke-width="10" stroke-linecap="square"/>
  </g>
</svg>
